<svg width="61" height="59" viewBox="0 0 61 59" fill="none" xmlns="http://www.w3.org/2000/svg">
<g opacity="0.4">
<path d="M53.375 48.7817H7.625V11.9863" stroke="white" stroke-width="2" stroke-miterlimit="10"/>
<path d="M14.2075 44.298V35.3815C14.2075 34.1146 15.2792 33.0781 16.589 33.0781H18.5577C19.8667 33.0781 20.9392 34.1146 20.9392 35.3815V44.298" stroke="white" stroke-width="2" stroke-miterlimit="10" stroke-linejoin="round"/>
<path d="M26.9823 44.2965V27.6452C26.9823 26.3784 28.0548 25.3418 29.3638 25.3418H31.3317C32.6415 25.3418 33.7132 26.3784 33.7132 27.6452V44.2973" stroke="white" stroke-width="2" stroke-miterlimit="10" stroke-linejoin="round"/>
<path d="M45.4939 16.5306C47.2656 16.5306 48.7018 15.1414 48.7018 13.4279C48.7018 11.7144 47.2656 10.3252 45.4939 10.3252C43.7223 10.3252 42.286 11.7144 42.286 13.4279C42.286 15.1414 43.7223 16.5306 45.4939 16.5306Z" stroke="white" stroke-width="2" stroke-miterlimit="10"/>
<path d="M48.6015 43.5898L48.8714 32.8528C49.9129 32.4897 51.1569 31.6481 51.0465 30.5885L50.1971 22.4184C50.0852 21.3588 49.0945 20.4912 47.9942 20.4912H42.9923C41.8913 20.4912 40.899 21.3588 40.791 22.4184L39.94 30.5885C39.8281 31.6481 41.0736 32.4904 42.1151 32.8528L42.3851 43.5898" stroke="white" stroke-width="2" stroke-miterlimit="10" stroke-linecap="round" stroke-linejoin="round"/>
</g>
</svg>
