<svg width="20" height="20" viewBox="0 0 20 20" fill="none" xmlns="http://www.w3.org/2000/svg">
<path fill-rule="evenodd" clip-rule="evenodd" d="M10 20C15.5228 20 20 15.5228 20 10C20 4.47715 15.5228 0 10 0C4.47715 0 0 4.47715 0 10C0 15.5228 4.47715 20 10 20Z" fill="#DF7112"/>
<path fill-rule="evenodd" clip-rule="evenodd" d="M14.7349 7.2741C14.5603 7.0968 14.3269 7 14.0781 7C13.8357 7 13.6059 7.09408 13.4322 7.26415L8.90903 11.7132L6.56422 9.44342C6.39143 9.27606 6.16437 9.18288 5.92283 9.18288C5.67225 9.18288 5.43704 9.28149 5.26064 9.46242C5.08876 9.63882 4.99648 9.87222 5.0001 10.1183C5.00372 10.3652 5.10414 10.5959 5.28054 10.7669L8.27126 13.6626C8.44405 13.8309 8.67202 13.9232 8.91356 13.9232C9.156 13.9232 9.38487 13.8309 9.56037 13.659L14.724 8.57949C14.9004 8.40761 14.9981 8.17693 14.9999 7.93087C15.0027 7.6839 14.9086 7.45141 14.7349 7.2741Z" fill="white"/>
</svg>
