<svg width="60" height="60" viewBox="0 0 60 60" fill="none" xmlns="http://www.w3.org/2000/svg">
<path d="M43.7021 38.6949L49.8956 38.6904" stroke="white" stroke-width="2"/>
<path d="M23.8346 46.749C22.9211 46.9395 20.9201 47.0565 19.6488 44.9018L14.2773 35.6865H11.0186" stroke="white" stroke-width="2"/>
<path d="M29.0801 37.2041L32.2961 42.9994" stroke="white" stroke-width="2" stroke-linecap="round"/>
<path d="M24.4277 40.9902L26.515 44.6187" stroke="white" stroke-width="2" stroke-linecap="round"/>
<path d="M36.4479 44.3178C35.5119 44.713 33.7201 45.4548 32.2764 42.9775" stroke="white" stroke-width="2"/>
<path d="M29.9058 45.8682C29.9058 45.8682 27.9453 47.2174 26.5195 44.6172" stroke="white" stroke-width="2"/>
<path d="M11.0039 16.9746H21.6059" stroke="white" stroke-width="2"/>
<path d="M3.12513 13.9053H8.7901C9.89467 13.9053 10.7901 14.8007 10.7901 15.9053V37.067C10.7901 38.1716 9.89467 39.067 8.7901 39.067H3.06738" stroke="white" stroke-width="2"/>
<path d="M57.6257 16.0723H51.96C50.8554 16.0723 49.96 16.9677 49.96 18.0723V39.234C49.96 40.3386 50.8554 41.234 51.96 41.234H57.6827" stroke="white" stroke-width="2"/>
<path d="M44.1084 39.709L35.4407 23.188C34.7057 23.1415 30.9692 22.8048 30.9692 22.8048L25.8504 28.0038C21.5784 31.2693 19.2422 26.4565 19.2422 26.4565L25.819 17.8848C28.0232 15.1135 30.2424 15.082 30.2424 15.082L40.1417 15.0963L49.8362 19.3135" stroke="white" stroke-width="2"/>
<path d="M44.676 39.0497C44.2822 40.1604 41.7607 46.6614 38.505 40.9689L33.9697 33.8574" stroke="white" stroke-width="2" stroke-linecap="round"/>
</svg>
