<svg width="30" height="30" viewBox="0 0 34 34" fill="none" xmlns="http://www.w3.org/2000/svg">
  <rect width="34" height="34" fill="#E7E7E7" />
  <path
    d="M23.7385 27.7456C23.5586 26.6956 23.2987 24.9886 23.4007 23.3253C23.4007 23.3253 24.0063 20.5982 25.2187 18.856C25.2187 18.856 29.0825 12.2651 23.3243 8.02224C23.3243 8.02224 18.2295 4.24481 12.0667 7.74098C12.0667 7.74098 8.62953 9.22863 9.3563 13.9863C9.3563 13.9863 9.50348 15.3175 9.08252 15.9387L6.80626 18.6153C6.80626 18.6153 6.50332 19.4103 7.41248 19.4861L8.79983 19.7723C8.79983 19.7723 9.37976 20.9037 9.43805 21.7744C9.49638 22.6445 9.29298 23.7182 9.29298 23.7182C9.29298 23.7182 8.79983 25.0245 9.57424 25.5973C9.72641 25.6354 10.295 26.2807 14.348 25.4092C14.348 25.4092 14.7397 25.5945 14.9876 27.7129"
    stroke="#0A0A0A" stroke-miterlimit="10" stroke-linecap="round" stroke-linejoin="round" />
  <path d="M9.61133 21.833L11.3525 21.8606" stroke="black" stroke-miterlimit="10" stroke-linecap="round"
    stroke-linejoin="round" />
  <path
    d="M13.8195 13.2855L13.6725 12.4691C13.443 11.1953 14.0081 9.90934 15.1017 9.21692V9.21692C15.7748 8.79077 16.5832 8.6326 17.3672 8.77367L17.8855 8.86691C18.3315 8.94717 18.763 9.09386 19.1656 9.30207L19.5926 9.52294C20.1876 9.83066 20.7052 10.269 21.1067 10.8052L21.4617 11.2793C21.7916 11.72 21.974 12.2536 21.9826 12.8039V12.8039C21.9936 13.5058 21.7217 14.1826 21.2281 14.6817L20.9857 14.9268C20.7175 15.198 20.406 15.4225 20.0641 15.5913L19.4236 15.9074C18.9266 16.1526 18.4739 16.479 18.0842 16.8731L18.0296 16.9283C17.8281 17.1319 17.6479 17.3555 17.4917 17.5956V17.5956C17.033 18.3007 16.7951 19.1265 16.8083 19.9674L16.8109 20.1352"
    stroke="black" />
  <circle cx="16.5" cy="21.5" r="0.5" fill="black" />
</svg>