<svg width="62" height="61" viewBox="0 0 62 61" fill="none" xmlns="http://www.w3.org/2000/svg">
<g opacity="0.4">
<path d="M37.833 23.5916C39.9917 21.4116 40.026 17.8821 37.9101 15.7459C35.7925 13.6097 32.2931 13.646 30.1328 15.825L28.7954 17.164L27.4663 15.825C25.3068 13.646 21.8082 13.6097 19.6907 15.7459C17.5731 17.8821 17.6075 21.4116 19.7678 23.5916L28.7987 32.692L37.833 23.5916Z" stroke="white" stroke-width="2" stroke-miterlimit="10" stroke-linecap="round" stroke-linejoin="round"/>
<path d="M14.2286 55.1647C14.6526 52.73 15.2652 48.7726 15.0247 44.9157C15.0247 44.9157 13.5976 38.592 10.7401 34.5522C10.7401 34.5522 1.63371 19.2698 15.2048 9.43152C15.2048 9.43152 27.2123 0.672371 41.7378 8.77935C41.7378 8.77935 49.8378 12.2289 48.1258 23.2611C48.1258 23.2611 47.7789 26.3479 48.7711 27.7891L54.1358 33.994C54.1358 33.994 54.8498 35.8383 52.707 36.0139L49.4372 36.6776C49.4372 36.6776 48.0705 39.3011 47.933 41.3202C47.7956 43.3377 48.275 45.8276 48.275 45.8276C48.275 45.8276 49.4372 48.8567 47.6121 50.1849C47.2534 50.2731 45.9135 51.7695 36.3614 49.7487C36.3614 49.7487 35.4379 50.1783 34.8538 55.0896" stroke="white" stroke-width="2" stroke-miterlimit="10" stroke-linecap="round" stroke-linejoin="round"/>
<path d="M47.5217 41.4541L43.4181 41.5209" stroke="white" stroke-width="2" stroke-miterlimit="10" stroke-linecap="round" stroke-linejoin="round"/>
</g>
</svg>
