<svg width="48" height="53" viewBox="0 0 48 53" fill="none" xmlns="http://www.w3.org/2000/svg">
<g clip-path="url(#clip0)">
<path d="M24.0043 0.879883C13.9121 0.879883 13.3481 7.16488 14.0574 14.8055C14.7666 22.4549 19.4325 28.7223 24.0043 28.7223C28.5762 28.7223 33.242 22.4549 33.9513 14.8055C34.652 7.16488 34.088 0.879883 24.0043 0.879883Z" stroke="#282830" stroke-width="2" stroke-linejoin="round"/>
<path d="M26.9864 7.05078C26.9864 7.05078 25.9182 12.2795 18.2017 12.2795" stroke="#282830" stroke-width="2" stroke-linecap="round" stroke-linejoin="round"/>
<path d="M26.1064 9.17188C26.1064 9.17188 29.5759 11.619 33.8401 12.7633" stroke="#282830" stroke-width="2" stroke-linecap="round" stroke-linejoin="round"/>
<path d="M22.4146 40.668L21.0132 52.1201" stroke="#282830" stroke-width="2" stroke-linecap="round" stroke-linejoin="round"/>
<path d="M25.5938 40.668L26.9952 52.1201" stroke="#282830" stroke-width="2" stroke-linecap="round" stroke-linejoin="round"/>
<path d="M0.854492 52.1201L1.71759 40.2983C2.57213 33.7756 6.37488 33.045 6.37488 33.045C6.37488 33.045 10.5194 31.839 14.9289 31.082L18.7829 39.1187" stroke="#282830" stroke-width="2" stroke-linecap="round" stroke-linejoin="round"/>
<path d="M47.1452 52.1201L46.2821 40.2983C45.4276 33.7756 41.6248 33.045 41.6248 33.045C41.6248 33.045 37.4803 31.839 33.0708 31.082L29.2168 39.1187" stroke="#282830" stroke-width="2" stroke-linecap="round" stroke-linejoin="round"/>
<path d="M24.013 42.279L19.9795 37.5873L23.9873 32.8955H24.013L28.0208 37.5873L24.013 42.279Z" stroke="#282830" stroke-width="2" stroke-linecap="round" stroke-linejoin="round"/>
</g>
<defs>
<clipPath id="clip0">
<rect width="48" height="53" fill="white"/>
</clipPath>
</defs>
</svg>
