<svg width="300" height="51" viewBox="0 0 300 51" fill="none" xmlns="http://www.w3.org/2000/svg">
<path d="M90.2024 46.533C90.4714 45.2806 91.1405 44.1497 92.1088 43.3109C92.9823 42.5566 94.099 42.1433 95.2531 42.1473C95.937 42.1248 96.6109 42.3165 97.1807 42.6955C97.6992 43.0581 98.0627 43.6021 98.1993 44.2199C98.356 44.9539 98.3317 45.715 98.1286 46.4375C97.9325 47.252 97.5713 48.0176 97.0675 48.687C96.5929 49.3258 95.9718 49.8413 95.2566 50.1902C94.5968 50.518 93.8712 50.6921 93.1345 50.6995C92.4426 50.725 91.7608 50.5279 91.1892 50.1371C90.6767 49.7645 90.3181 49.2173 90.1812 48.5986C90.0226 47.9183 90.0299 47.2099 90.2024 46.533ZM91.3236 46.5507C91.076 47.5481 91.1503 48.3192 91.5429 48.9028C91.7431 49.1894 92.0142 49.4192 92.3297 49.5698C92.6452 49.7204 92.9944 49.7867 93.3432 49.7622C94.174 49.7596 94.9747 49.4511 95.5926 48.8957C96.3147 48.2412 96.8101 47.3742 97.0074 46.4198C97.1695 45.8447 97.2022 45.2407 97.1029 44.6514C97.0228 44.187 96.7701 43.7701 96.3955 43.4842C95.9959 43.1994 95.5137 43.054 95.0232 43.0704C94.2216 43.0802 93.4472 43.3621 92.8268 43.8697C92.1335 44.418 91.6348 45.3057 91.3236 46.5507Z" fill="white"/>
<path d="M104.427 50.5576L104.647 49.6804C104.381 49.9927 104.052 50.2447 103.681 50.4197C103.31 50.5948 102.906 50.6888 102.496 50.6955C102.171 50.7001 101.849 50.6299 101.555 50.4904C101.318 50.3893 101.123 50.2094 101.004 49.981C100.899 49.7445 100.855 49.4855 100.876 49.2277C100.906 48.9072 100.964 48.59 101.05 48.2798L101.976 44.5696H102.991L102.181 47.8907C102.081 48.2374 102.012 48.5926 101.976 48.9518C101.968 49.0686 101.986 49.1857 102.029 49.2946C102.072 49.4036 102.138 49.5015 102.224 49.5814C102.423 49.7422 102.675 49.823 102.931 49.8077C103.251 49.8038 103.565 49.7238 103.847 49.5743C104.14 49.4283 104.39 49.209 104.572 48.9377C104.787 48.5749 104.941 48.1794 105.029 47.7669L105.828 44.5625H106.843L105.35 50.547L104.427 50.5576Z" fill="white"/>
<path d="M111.495 49.6533L111.417 50.5482C111.158 50.6041 110.894 50.6349 110.628 50.6401C110.346 50.6599 110.064 50.5985 109.815 50.4633C109.734 50.4119 109.664 50.3447 109.61 50.2657C109.556 50.1866 109.519 50.0974 109.5 50.0035C109.49 49.5981 109.549 49.1939 109.673 48.808L110.533 45.363H109.79L109.985 44.5743H110.731L111.085 43.0888L112.248 42.4805L111.732 44.5708H112.754L112.556 45.3595H111.537L110.671 48.861C110.61 49.041 110.582 49.2301 110.586 49.4199C110.592 49.4595 110.606 49.4975 110.627 49.5316C110.649 49.5656 110.677 49.595 110.71 49.6179C110.809 49.6756 110.924 49.7015 111.039 49.6922C111.191 49.6884 111.344 49.6754 111.495 49.6533Z" fill="white"/>
<path d="M118.837 48.3656L119.803 48.4965C119.554 49.1441 119.123 49.7056 118.561 50.1129C118.038 50.493 117.408 50.6973 116.761 50.6965C116.422 50.7243 116.081 50.6649 115.772 50.5237C115.462 50.3825 115.194 50.1644 114.993 49.89C114.629 49.3572 114.573 48.5897 114.823 47.5875C114.965 46.9822 115.216 46.4079 115.566 45.8933C115.88 45.4267 116.31 45.0501 116.814 44.8005C117.288 44.5689 117.808 44.4479 118.335 44.4468C118.601 44.4273 118.869 44.461 119.122 44.546C119.375 44.6311 119.609 44.7656 119.81 44.9419C119.982 45.1314 120.111 45.356 120.188 45.6003C120.265 45.8446 120.288 46.1027 120.255 46.3567L119.23 46.5088C119.26 46.1819 119.163 45.856 118.957 45.5998C118.855 45.4961 118.732 45.4154 118.596 45.363C118.46 45.3105 118.314 45.2876 118.169 45.2956C117.654 45.2963 117.159 45.4937 116.786 45.8474C116.313 46.3209 115.993 46.9262 115.87 47.584C115.672 48.3904 115.679 48.974 115.898 49.3525C116.007 49.5325 116.164 49.679 116.351 49.7757C116.539 49.8724 116.749 49.9157 116.959 49.9007C117.351 49.9069 117.735 49.7825 118.048 49.547C118.421 49.2387 118.695 48.828 118.837 48.3656Z" fill="white"/>
<path d="M122.65 47.5667C122.842 46.5808 123.389 45.6998 124.188 45.0909C124.783 44.6582 125.5 44.4254 126.236 44.426C126.582 44.3996 126.93 44.4598 127.247 44.6011C127.565 44.7425 127.842 44.9607 128.054 45.2359C128.443 45.7735 128.518 46.5187 128.28 47.4713C128.139 48.125 127.867 48.7434 127.481 49.2892C127.145 49.7263 126.711 50.0788 126.215 50.3185C125.736 50.5524 125.209 50.6734 124.676 50.6722C123.837 50.6722 123.226 50.4033 122.844 49.8657C122.462 49.3281 122.397 48.5618 122.65 47.5667ZM123.693 47.5667C123.502 48.3343 123.523 48.9073 123.764 49.2892C123.881 49.4771 124.048 49.6296 124.245 49.7305C124.443 49.8314 124.664 49.8769 124.885 49.8622C125.413 49.8565 125.918 49.6504 126.3 49.2857C126.784 48.8044 127.11 48.1879 127.237 47.5172C127.424 46.778 127.393 46.2157 127.152 45.8372C127.036 45.6505 126.871 45.4986 126.676 45.3978C126.48 45.2969 126.261 45.2508 126.041 45.2642C125.514 45.2666 125.008 45.4703 124.627 45.8337C124.144 46.3014 123.818 46.9067 123.693 47.5667Z" fill="white"/>
<path d="M130.832 50.5589L132.321 44.571H133.227L133.018 45.4092C133.278 45.1157 133.593 44.8755 133.945 44.7018C134.296 44.5254 134.683 44.4333 135.076 44.433C135.438 44.4093 135.798 44.5063 136.098 44.7089C136.217 44.8017 136.315 44.9188 136.385 45.0523C136.456 45.1859 136.496 45.3329 136.505 45.4835C136.763 45.1653 137.085 44.906 137.451 44.7229C137.817 44.5399 138.218 44.4374 138.627 44.4224C138.86 44.3972 139.095 44.4292 139.313 44.5155C139.53 44.6017 139.724 44.7398 139.876 44.9176C140.112 45.2477 140.145 45.7535 139.975 46.4349L138.949 50.5448H137.941L138.882 46.7744C138.969 46.4905 139.01 46.1943 139.002 45.8973C138.993 45.8118 138.966 45.7293 138.922 45.6549C138.879 45.5806 138.821 45.5162 138.751 45.4658C138.584 45.3505 138.384 45.2933 138.182 45.3031C137.759 45.3012 137.35 45.4505 137.029 45.724C136.638 46.0779 136.375 46.5501 136.279 47.068L135.409 50.5448H134.397L135.366 46.6542C135.481 46.3267 135.481 45.9702 135.366 45.6427C135.257 45.4163 135.013 45.289 134.638 45.289C134.341 45.2924 134.051 45.3702 133.792 45.5153C133.501 45.6656 133.256 45.8932 133.085 46.1732C132.865 46.5642 132.705 46.9863 132.611 47.4252L131.837 50.5306L130.832 50.5589Z" fill="white"/>
<path d="M147.147 48.631L148.166 48.7619C147.874 49.3388 147.433 49.8272 146.889 50.1766C146.339 50.5219 145.699 50.6989 145.05 50.686C144.173 50.686 143.547 50.4136 143.168 49.876C142.79 49.3384 142.723 48.5815 142.963 47.6053C143.156 46.6977 143.634 45.8758 144.328 45.2604C144.943 44.7202 145.734 44.4233 146.553 44.4256C146.893 44.3976 147.235 44.4581 147.545 44.6012C147.855 44.7444 148.122 44.9654 148.321 45.2427C148.692 45.7874 148.754 46.5548 148.509 47.5452C148.509 47.6053 148.47 47.6937 148.438 47.814H143.96C143.888 48.0652 143.867 48.3284 143.899 48.5879C143.93 48.8473 144.014 49.0978 144.144 49.3243C144.268 49.5043 144.435 49.6496 144.631 49.7462C144.827 49.8429 145.044 49.8876 145.262 49.876C145.626 49.8781 145.983 49.7762 146.291 49.5824C146.647 49.3361 146.94 49.0103 147.147 48.631ZM144.226 46.9899H147.568C147.662 46.6121 147.627 46.2138 147.469 45.8581C147.357 45.667 147.193 45.5113 146.997 45.4087C146.801 45.3061 146.579 45.2608 146.358 45.278C145.886 45.28 145.429 45.4449 145.064 45.7449C144.664 46.0649 144.372 46.4993 144.226 46.9899Z" fill="white"/>
<path d="M156.576 50.559L158.638 42.2968H161.468C161.95 42.2826 162.433 42.3217 162.907 42.4135C163.312 42.5013 163.681 42.7068 163.968 43.0042C164.324 43.3958 164.544 43.8921 164.594 44.4189C164.661 45.0779 164.605 45.7436 164.428 46.3819C164.29 46.9634 164.077 47.5245 163.795 48.0514C163.561 48.489 163.27 48.8934 162.928 49.2539C162.653 49.5473 162.338 49.7998 161.991 50.0037C161.651 50.1956 161.284 50.3351 160.902 50.4175C160.454 50.5167 159.996 50.5641 159.537 50.559H156.576ZM157.913 49.5828H159.682C160.126 49.5948 160.57 49.5448 161.001 49.4343C161.309 49.3456 161.597 49.1991 161.85 49.0028C162.201 48.7116 162.494 48.3578 162.716 47.9594C162.995 47.4592 163.202 46.9222 163.332 46.3642C163.543 45.7205 163.567 45.0301 163.402 44.373C163.342 44.1697 163.239 43.9814 163.1 43.8205C162.962 43.6596 162.791 43.5297 162.6 43.4392C162.156 43.3006 161.691 43.2431 161.227 43.2694H159.48L157.913 49.5828Z" fill="white"/>
<path d="M166.906 50.5585L168.388 44.5706H169.301L169.074 45.476C169.311 45.1505 169.6 44.8671 169.93 44.6378C170.143 44.5059 170.388 44.4349 170.638 44.4326C170.985 44.4346 171.321 44.5502 171.596 44.7615L171.013 45.7024C170.807 45.5549 170.558 45.478 170.305 45.4831C170.075 45.4869 169.851 45.5556 169.658 45.6812C169.443 45.8212 169.266 46.0119 169.142 46.2365C168.935 46.609 168.779 47.0075 168.678 47.4213L167.897 50.555L166.906 50.5585Z" fill="white"/>
<path d="M172.885 50.5581L174.377 44.5701H175.396L173.903 50.5546L172.885 50.5581ZM174.653 43.4631L174.943 42.2959H175.958L175.668 43.4631H174.653Z" fill="white"/>
<path d="M179.231 50.5583L178.445 44.5703H179.506L179.899 48.1532C179.941 48.5423 179.97 48.9419 179.98 49.3593C180.15 49.0445 180.369 48.6519 180.642 48.2204L182.895 44.5703H183.938L180.178 50.5548L179.231 50.5583Z" fill="white"/>
<path d="M190.041 48.6312L191.06 48.762C190.768 49.338 190.328 49.8262 189.786 50.1768C189.234 50.5218 188.594 50.6988 187.944 50.6861C187.066 50.6861 186.44 50.4138 186.062 49.8762C185.683 49.3386 185.616 48.5817 185.86 47.6055C186.051 46.6982 186.529 45.8762 187.222 45.2605C187.837 44.7209 188.628 44.4241 189.447 44.4258C189.787 44.3974 190.129 44.4577 190.439 44.6009C190.749 44.7441 191.016 44.9653 191.215 45.2428C191.585 45.7875 191.648 46.555 191.403 47.5453C191.403 47.6055 191.364 47.6939 191.332 47.8141H186.854C186.782 48.0653 186.761 48.3285 186.792 48.588C186.824 48.8475 186.908 49.0979 187.038 49.3244C187.165 49.4999 187.335 49.6404 187.531 49.7325C187.727 49.8247 187.943 49.8656 188.159 49.8514C188.522 49.853 188.878 49.7511 189.185 49.5578C189.537 49.3185 189.83 49.0015 190.041 48.6312ZM187.119 46.9901H190.462C190.557 46.6124 190.523 46.2135 190.363 45.8582C190.252 45.6658 190.088 45.5087 189.892 45.4048C189.696 45.301 189.474 45.2546 189.252 45.2711C188.78 45.273 188.323 45.4379 187.958 45.738C187.559 46.0618 187.267 46.4981 187.119 46.9901Z" fill="white"/>
<path d="M194.011 50.559L195.503 44.571H196.416L196.204 45.4198C196.47 45.1099 196.8 44.8612 197.171 44.6909C197.542 44.5205 197.946 44.4326 198.354 44.433C198.681 44.4267 199.004 44.4932 199.302 44.6276C199.541 44.7277 199.736 44.9095 199.854 45.1404C199.957 45.3762 200.002 45.6334 199.985 45.8902C199.947 46.2226 199.883 46.5514 199.794 46.8735L198.874 50.5554H197.862L198.768 46.9159C198.859 46.6147 198.897 46.3 198.881 45.9857C198.868 45.8882 198.835 45.7944 198.784 45.7104C198.733 45.6263 198.665 45.5539 198.584 45.4976C198.389 45.3673 198.157 45.3029 197.923 45.3137C197.482 45.3177 197.053 45.4614 196.699 45.724C196.317 45.9999 196.03 46.521 195.839 47.2873L195.026 50.5554L194.011 50.559Z" fill="white"/>
<path d="M208.306 47.9024L209.367 47.814C209.306 48.1554 209.337 48.5068 209.456 48.8326C209.593 49.1217 209.832 49.3498 210.128 49.4728C210.505 49.6479 210.918 49.7326 211.334 49.7204C211.726 49.724 212.116 49.6606 212.487 49.5329C212.802 49.4309 213.089 49.2565 213.325 49.0236C213.523 48.8293 213.665 48.5848 213.735 48.3162C213.805 48.091 213.784 47.8478 213.679 47.6371C213.535 47.4063 213.315 47.2335 213.056 47.149C212.609 46.9866 212.152 46.8519 211.687 46.7458C211.178 46.638 210.685 46.4644 210.22 46.2294C209.902 46.0629 209.652 45.7917 209.512 45.4619C209.395 45.1306 209.383 44.7712 209.477 44.4327C209.594 43.9956 209.816 43.5937 210.124 43.262C210.467 42.89 210.894 42.6061 211.369 42.4343C211.876 42.2465 212.413 42.1518 212.954 42.1549C213.485 42.1393 214.014 42.2395 214.503 42.4485C214.892 42.6179 215.201 42.9308 215.366 43.3221C215.523 43.738 215.551 44.1915 215.447 44.6237L214.386 44.7015C214.436 44.4962 214.437 44.282 214.389 44.0762C214.341 43.8705 214.246 43.6788 214.11 43.5166C213.734 43.211 213.252 43.0673 212.77 43.117C212.235 43.0832 211.701 43.2061 211.235 43.4706C210.907 43.6663 210.666 43.9802 210.563 44.3478C210.522 44.4715 210.513 44.6036 210.537 44.7317C210.561 44.8598 210.617 44.9797 210.701 45.0799C210.863 45.2709 211.362 45.469 212.2 45.6706C212.784 45.7879 213.354 45.9645 213.902 46.1976C214.277 46.3674 214.579 46.666 214.754 47.0394C214.901 47.4142 214.92 47.8271 214.807 48.2136C214.684 48.6795 214.447 49.1074 214.117 49.4586C213.756 49.8565 213.308 50.1662 212.809 50.3641C212.277 50.5831 211.707 50.6937 211.132 50.6895C210.517 50.7142 209.903 50.6032 209.335 50.3641C208.907 50.1691 208.569 49.8172 208.391 49.3808C208.213 48.9082 208.183 48.3923 208.306 47.9024Z" fill="white"/>
<path d="M218.081 47.5667C218.273 46.5808 218.821 45.6998 219.619 45.0909C220.215 44.6582 220.932 44.4254 221.667 44.426C222.014 44.3996 222.361 44.4598 222.679 44.6011C222.996 44.7425 223.273 44.9607 223.485 45.2359C223.871 45.7735 223.949 46.5198 223.712 47.4713C223.571 48.125 223.299 48.7434 222.912 49.2892C222.576 49.7263 222.143 50.0788 221.646 50.3185C221.167 50.5524 220.641 50.6734 220.108 50.6722C219.271 50.6722 218.66 50.4033 218.275 49.8657C217.891 49.3281 217.826 48.5618 218.081 47.5667ZM219.124 47.5667C218.933 48.3343 218.955 48.9073 219.195 49.2892C219.311 49.4792 219.476 49.6341 219.673 49.7375C219.869 49.8409 220.091 49.8889 220.313 49.8764C220.84 49.8706 221.346 49.6645 221.727 49.2998C222.211 48.8186 222.538 48.202 222.665 47.5314C222.849 46.7922 222.82 46.2298 222.58 45.8514C222.464 45.6646 222.299 45.5128 222.104 45.4119C221.908 45.311 221.689 45.2649 221.469 45.2784C220.942 45.2801 220.436 45.4839 220.055 45.8478C219.576 46.3122 219.251 46.9121 219.124 47.5667Z" fill="white"/>
<path d="M226.501 50.5586L227.799 45.3629H226.901L227.099 44.5742H227.994L228.153 43.934C228.219 43.6211 228.331 43.3196 228.485 43.0392C228.652 42.7714 228.884 42.5509 229.161 42.399C229.498 42.2244 229.874 42.1403 230.254 42.1549C230.564 42.1568 230.873 42.19 231.177 42.254L230.805 43.1559C230.613 43.1185 230.418 43.0995 230.222 43.0993C229.97 43.079 229.719 43.1492 229.514 43.2974C229.315 43.4968 229.184 43.7543 229.14 44.033L229.002 44.5883H230.165L229.971 45.3771H228.804L227.509 50.5728L226.501 50.5586Z" fill="white"/>
<path d="M234.033 49.6533L233.955 50.5482C233.695 50.6043 233.431 50.6351 233.166 50.6401C232.884 50.6599 232.601 50.5985 232.353 50.4633C232.272 50.4119 232.202 50.3447 232.148 50.2657C232.094 50.1866 232.056 50.0974 232.038 50.0035C232.03 49.5982 232.089 49.1944 232.211 48.808L233.071 45.363H232.338L232.536 44.5743H233.279L233.633 43.0888L234.797 42.4805L234.277 44.5708H235.299L235.101 45.3595H234.082L233.208 48.8575C233.148 49.0375 233.119 49.2266 233.124 49.4163C233.13 49.456 233.144 49.494 233.165 49.528C233.186 49.5621 233.214 49.5915 233.247 49.6144C233.347 49.6716 233.462 49.6975 233.576 49.6887C233.729 49.686 233.881 49.6742 234.033 49.6533Z" fill="white"/>
<path d="M238.028 50.5596L237.674 44.5752H238.735L238.827 48.0308L238.859 49.3146L239.478 48.0803L241.306 44.5752H242.346L242.378 48.0449V49.1909L243.011 48.0343L244.9 44.5752H245.887L242.519 50.5596H241.458L241.402 46.9767L241.423 45.9546L239.064 50.5526L238.028 50.5596Z" fill="white"/>
<path d="M251.479 49.8185C251.094 50.1025 250.671 50.3311 250.223 50.4976C249.848 50.6282 249.453 50.6951 249.056 50.6957C248.398 50.6957 247.931 50.533 247.641 50.2111C247.504 50.0407 247.412 49.8389 247.374 49.6239C247.335 49.409 247.35 49.1877 247.418 48.9802C247.491 48.6866 247.627 48.4125 247.818 48.1774C248.002 47.9415 248.231 47.7434 248.49 47.5938C248.743 47.4455 249.016 47.3336 249.3 47.2613C249.61 47.1926 249.924 47.1418 250.241 47.1092C250.883 47.0476 251.519 46.9292 252.14 46.7555C252.175 46.6176 252.2 46.5292 252.211 46.4903C252.267 46.3518 252.291 46.2022 252.28 46.0531C252.269 45.904 252.223 45.7594 252.147 45.6308C252.005 45.5006 251.837 45.4019 251.654 45.3409C251.471 45.28 251.278 45.2583 251.086 45.2771C250.696 45.2548 250.308 45.3418 249.965 45.5282C249.646 45.752 249.395 46.0592 249.24 46.416L248.281 46.2781C248.449 45.894 248.689 45.5458 248.989 45.2523C249.292 44.9733 249.655 44.7665 250.05 44.6475C250.507 44.5014 250.985 44.4297 251.464 44.4353C251.873 44.4186 252.281 44.4798 252.667 44.6157C252.909 44.6986 253.116 44.859 253.258 45.072C253.373 45.289 253.423 45.5345 253.403 45.7793C253.361 46.0881 253.296 46.3931 253.208 46.6919L252.854 48.0465C252.69 48.6345 252.562 49.2322 252.472 49.8362C252.453 50.0748 252.479 50.3149 252.55 50.5436H251.489C251.439 50.3049 251.435 50.0586 251.479 49.8185ZM251.956 47.5549C251.381 47.7421 250.789 47.8701 250.188 47.9369C249.869 47.9712 249.555 48.0388 249.25 48.1385C249.067 48.211 248.902 48.3248 248.769 48.4709C248.643 48.6065 248.553 48.772 248.508 48.952C248.471 49.067 248.465 49.1894 248.489 49.3077C248.513 49.4259 248.567 49.536 248.646 49.6275C248.757 49.7294 248.888 49.8063 249.032 49.8533C249.175 49.9003 249.327 49.9161 249.477 49.8998C249.861 49.9023 250.24 49.8138 250.584 49.6417C250.92 49.4797 251.21 49.2366 251.429 48.9343C251.63 48.6248 251.772 48.2805 251.846 47.9192L251.956 47.5549Z" fill="white"/>
<path d="M255.922 50.5585L257.414 44.5706H258.327L258.101 45.476C258.337 45.1505 258.626 44.8671 258.957 44.6378C259.169 44.5048 259.414 44.4338 259.664 44.4326C260.012 44.4341 260.35 44.5497 260.626 44.7615L260.042 45.7024C259.841 45.5585 259.6 45.4818 259.353 45.4831C259.122 45.486 258.898 45.5547 258.705 45.6812C258.49 45.8202 258.312 46.0111 258.189 46.2365C257.982 46.609 257.827 47.0075 257.726 47.4213L256.944 50.555L255.922 50.5585Z" fill="white"/>
<path d="M266.476 48.6312L267.495 48.762C267.203 49.339 266.762 49.8274 266.218 50.1768C265.668 50.5221 265.029 50.6991 264.379 50.6861C263.502 50.6861 262.876 50.4138 262.497 49.8762C262.119 49.3386 262.052 48.5817 262.296 47.6055C262.487 46.6982 262.964 45.8762 263.658 45.2605C264.273 44.7203 265.064 44.4235 265.882 44.4258C266.223 44.3974 266.564 44.4577 266.874 44.6009C267.184 44.7441 267.452 44.9653 267.651 45.2428C268.023 45.7875 268.086 46.555 267.838 47.5453C267.838 47.6055 267.799 47.6939 267.767 47.8141H263.29C263.217 48.0653 263.196 48.3285 263.228 48.588C263.26 48.8475 263.343 49.0979 263.474 49.3244C263.598 49.5047 263.766 49.6502 263.962 49.7468C264.158 49.8434 264.376 49.888 264.595 49.8762C264.958 49.8777 265.313 49.7759 265.621 49.5826C265.976 49.3362 266.269 49.0105 266.476 48.6312ZM263.555 46.9901H266.897C266.991 46.6123 266.957 46.2139 266.798 45.8582C266.687 45.6658 266.524 45.5087 266.328 45.4048C266.131 45.301 265.909 45.2546 265.688 45.2711C265.215 45.273 264.758 45.4379 264.393 45.738C263.993 46.0608 263.701 46.4974 263.555 46.9901Z" fill="white"/>
<path d="M83.3649 33.0749C80.2877 33.0749 77.6704 32.3675 75.5483 30.9881C73.8185 29.8829 72.4338 28.3143 71.5516 26.4609C71.3966 26.1395 71.3688 25.7713 71.4737 25.4303C71.5786 25.0892 71.8086 24.8004 72.1175 24.6217L75.5837 22.6057C76.8569 26.1779 79.5096 27.9818 83.5063 27.9818C85.487 27.9818 86.9725 27.5927 87.9628 26.8146C88.4372 26.4648 88.8201 26.0056 89.0787 25.4759C89.3374 24.9463 89.4642 24.362 89.4483 23.7728C89.4749 23.1802 89.3411 22.5914 89.061 22.0685C88.7808 21.5456 88.3648 21.108 87.8567 20.8018C86.7957 20.1298 84.8857 19.3517 82.1977 18.5382C80.7122 17.9723 79.4743 17.5479 78.5193 17.1942C77.4589 16.782 76.4499 16.2479 75.5129 15.6026C74.5027 14.9533 73.6942 14.0345 73.1786 12.9499C72.6289 11.7785 72.3624 10.4942 72.4004 9.20078C72.4004 6.37125 73.3908 4.143 75.4068 2.48065C77.4229 0.818308 79.8279 0.00481877 82.6575 0.00481877C84.7581 -0.0552735 86.8366 0.447597 88.6774 1.4613C90.5183 2.475 92.0544 3.96264 93.1267 5.76998C93.3229 6.09849 93.381 6.49136 93.2882 6.86258C93.1954 7.23379 92.9593 7.55311 92.6316 7.75065L89.3776 9.62521C88.0336 6.65421 85.8053 5.16871 82.6575 5.16871C81.1366 5.16871 79.9341 5.5224 79.0145 6.22978C78.5692 6.56749 78.2115 7.00717 77.9714 7.51187C77.7314 8.01656 77.6161 8.5715 77.6351 9.13004C77.6162 9.67234 77.7363 10.2105 77.9839 10.6933C78.2315 11.1762 78.5984 11.5877 79.0498 11.8888C79.9694 12.5608 81.6671 13.2682 84.1076 14.011C85.3102 14.4708 86.159 14.7891 86.7249 15.0013C87.2908 15.2135 88.069 15.4965 89.13 15.8855C89.9662 16.1778 90.7533 16.5952 91.4644 17.1235C92.054 17.6282 92.6094 18.1718 93.1267 18.7504C93.7135 19.3821 94.1383 20.1467 94.3646 20.9787C94.6172 21.9001 94.7363 22.853 94.7183 23.8082C94.7183 26.7085 93.6926 28.9721 91.6059 30.6698C89.4837 32.2261 86.7603 33.0749 83.3649 33.0749Z" fill="white"/>
<path d="M129.557 0.535156V31.0587C129.557 31.4339 129.408 31.7937 129.143 32.0591C128.877 32.3244 128.518 32.4734 128.142 32.4734H124.323V9.69575L114.561 25.7887H113.924L104.198 9.69575V31.094C104.198 31.4693 104.048 31.8291 103.783 32.0944C103.518 32.3598 103.158 32.5088 102.783 32.5088H98.9629V1.98529C98.9629 1.61007 99.1119 1.25022 99.3773 0.984901C99.6426 0.719581 100.002 0.570527 100.378 0.570527H104.622L114.242 16.522L123.898 0.570527H129.557V0.535156Z" fill="white"/>
<path d="M156.719 32.4734L154.456 26.0363H140.874L138.646 32.4734H132.951L144.022 1.94992C144.167 1.53939 144.435 1.18344 144.789 0.930349C145.143 0.677262 145.567 0.539289 146.002 0.535156H150.813L162.025 31.5185C162.065 31.6262 162.078 31.7422 162.064 31.8563C162.049 31.9704 162.007 32.0791 161.94 32.1732C161.874 32.2673 161.786 32.3438 161.684 32.3961C161.581 32.4484 161.468 32.475 161.353 32.4734H156.719ZM142.642 21.12H151.768C151.881 21.1175 151.993 21.0884 152.093 21.035C152.193 20.9815 152.28 20.9053 152.345 20.8123C152.41 20.7194 152.453 20.6124 152.469 20.5C152.486 20.3875 152.476 20.2728 152.44 20.165L147.735 6.68937L142.642 21.12Z" fill="white"/>
<path d="M184.026 32.4731L177.27 20.8366H171.045V31.0583C171.045 31.4335 170.896 31.7934 170.631 32.0587C170.365 32.324 170.006 32.4731 169.63 32.4731H165.811V1.94954C165.811 1.57432 165.96 1.21447 166.225 0.949152C166.49 0.683833 166.85 0.534779 167.225 0.534779H178.579C179.93 0.5201 181.27 0.775382 182.521 1.28565C183.772 1.79591 184.909 2.55089 185.864 3.50629C186.82 4.46168 187.575 5.59825 188.085 6.84932C188.595 8.10039 188.85 9.44076 188.836 10.7918C188.842 12.7932 188.224 14.7467 187.067 16.3801C185.939 18.04 184.337 19.3217 182.469 20.0585L189.083 31.412C189.145 31.5187 189.178 31.6396 189.178 31.7629C189.179 31.8861 189.147 32.0073 189.086 32.1145C189.026 32.2217 188.938 32.3112 188.832 32.3741C188.726 32.437 188.605 32.4711 188.482 32.4731H184.026ZM171.045 5.48645V16.1679H178.579C179.25 16.1747 179.916 16.0396 180.531 15.7714C181.147 15.5032 181.699 15.108 182.151 14.6117C182.632 14.109 183.009 13.5154 183.258 12.8656C183.507 12.2157 183.623 11.5227 183.601 10.8272C183.63 9.42488 183.109 8.06691 182.151 7.04269C181.699 6.54636 181.147 6.15116 180.531 5.88297C179.916 5.61479 179.25 5.47966 178.579 5.48645H171.045Z" fill="white"/>
<path d="M213.805 0.535156V4.14281C213.805 4.51803 213.656 4.87788 213.39 5.1432C213.125 5.40852 212.765 5.55757 212.39 5.55757H204.821V31.0587C204.821 31.4339 204.672 31.7937 204.407 32.0591C204.141 32.3244 203.782 32.4734 203.406 32.4734H199.587V5.55757H190.567V1.94992C190.567 1.5747 190.716 1.21485 190.982 0.94953C191.247 0.68421 191.607 0.535156 191.982 0.535156H213.805Z" fill="white"/>
<path d="M230.217 0.535156C234.603 0.535156 238.246 2.05603 241.146 5.13314C244.046 8.21025 245.497 11.9947 245.497 16.4866C245.497 20.9785 244.046 24.7276 241.146 27.8401C238.246 30.9526 234.603 32.4734 230.217 32.4734H217.661V1.94992C217.661 1.5747 217.81 1.21485 218.076 0.94953C218.341 0.68421 218.701 0.535156 219.076 0.535156H230.217ZM230.217 27.451C233.224 27.451 235.699 26.4253 237.574 24.3385C239.448 22.2518 240.439 19.6698 240.439 16.4866C240.439 13.3034 239.484 10.6861 237.574 8.63468C235.664 6.58327 233.224 5.55757 230.217 5.55757H224.346C223.971 5.55757 223.611 5.70662 223.346 5.97194C223.08 6.23726 222.931 6.59712 222.931 6.97233V27.451H230.217Z" fill="white"/>
<path d="M255.541 27.451H269.689V31.0587C269.689 31.4339 269.54 31.7937 269.275 32.0591C269.009 32.3244 268.649 32.4734 268.274 32.4734H250.307V1.94992C250.307 1.5747 250.456 1.21485 250.721 0.94953C250.986 0.68421 251.346 0.535156 251.721 0.535156H269.477V5.55757H255.577V13.8693H268.345V18.8563H255.577V27.451H255.541Z" fill="white"/>
<path d="M282.599 32.4734L271.528 0.535169H276.268C276.564 0.533903 276.852 0.625336 277.093 0.796627C277.334 0.967918 277.516 1.21046 277.612 1.49014L285.782 26.0717L293.988 1.49014C294.084 1.21046 294.265 0.967918 294.506 0.796627C294.747 0.625336 295.036 0.533903 295.332 0.535169H300L289.248 31.5185C289.148 31.7956 288.966 32.0355 288.726 32.2062C288.485 32.3768 288.199 32.4701 287.904 32.4734H282.599Z" fill="white"/>
<path d="M45.6266 40.5735L53.903 14.1528C54.4054 12.5555 54.5227 10.8619 54.2452 9.21063C53.9677 7.55931 53.3033 5.99711 52.3063 4.65176C51.3094 3.30641 50.0082 2.2161 48.5092 1.46998C47.0101 0.723861 45.3557 0.343115 43.6813 0.358868L39.5785 0.394239L23.7686 50.5122H32.151C35.1604 50.4967 38.0871 49.5259 40.509 47.7396C42.9309 45.9534 44.723 43.444 45.6266 40.5735Z" fill="url(#paint0_linear)"/>
<path d="M52.6301 18.1485L53.9034 14.0811C54.403 12.4923 54.5217 10.8083 54.2497 9.16517C53.9778 7.52208 53.3228 5.96607 52.338 4.62304C51.3531 3.28001 50.0659 2.18767 48.5805 1.43441C47.0951 0.681153 45.4533 0.288118 43.7878 0.287109H34.4858L28.8975 18.1839L52.6301 18.1485Z" fill="url(#paint1_linear)"/>
<path d="M18.781 50.4778L34.4849 0.289062L15.8454 0.39517L0 50.5132L18.781 50.4778Z" fill="url(#paint2_linear)"/>
<path d="M23.768 50.511L29.4129 32.6143L5.62368 32.7204L0 50.511H23.768Z" fill="url(#paint3_linear)"/>
<defs>
<linearGradient id="paint0_linear" x1="56.011" y1="8.20727" x2="18.7391" y2="45.4827" gradientUnits="userSpaceOnUse">
<stop stop-color="#00B4FF"/>
<stop offset="1" stop-color="#2F5FAE"/>
</linearGradient>
<linearGradient id="paint1_linear" x1="50.3276" y1="2.44462" x2="31.7447" y2="21.0275" gradientUnits="userSpaceOnUse">
<stop stop-color="#2D7AD8"/>
<stop offset="1" stop-color="#00EEFF"/>
</linearGradient>
<linearGradient id="paint2_linear" x1="-132999" y1="339821" x2="-138612" y2="343675" gradientUnits="userSpaceOnUse">
<stop stop-color="#00B4FF"/>
<stop offset="1" stop-color="#2F5FAE"/>
</linearGradient>
<linearGradient id="paint3_linear" x1="-114220" y1="120864" x2="-115283" y2="122612" gradientUnits="userSpaceOnUse">
<stop stop-color="#2D7AD8"/>
<stop offset="1" stop-color="#00EEFF"/>
</linearGradient>
</defs>
</svg>
