<svg width="52" height="52" viewBox="0 0 52 52" fill="none" xmlns="http://www.w3.org/2000/svg">
<path d="M36.6144 14.3633V4.462C36.6144 2.5579 35.1349 1 33.3266 1H10.1728L1 9.38671V47.538C1 49.4421 2.47948 51 4.28773 51H33.3266C35.1349 51 36.6144 49.4421 36.6144 47.538V40.8131" stroke="#282830" stroke-width="2"/>
<path d="M13.1478 1.66602V12.3203H6.9751" stroke="#282830" stroke-width="2"/>
<path d="M7.86328 26.0479H25.3047" stroke="#282830" stroke-width="2" stroke-linecap="round"/>
<path d="M7.86328 33.0059H22.7649" stroke="#282830" stroke-width="2" stroke-linecap="round"/>
<path d="M7.86328 39.9648H21.2772" stroke="#282830" stroke-width="2" stroke-linecap="round"/>
<path d="M36.245 36.7281L25.3955 40.1814L29.16 28.7395L43.215 13.9394C43.9877 13.1259 45.5 13.3769 46.5685 14.502L50.0124 18.1285C51.0809 19.2536 51.3193 20.8461 50.5467 21.6597L36.245 36.7281Z" stroke="#282830" stroke-width="2" stroke-linejoin="round"/>
<path d="M36.7376 35.9404L29.6772 28.4971" stroke="#282830" stroke-width="2" stroke-linejoin="round"/>
<path d="M28.7075 38.9524L26.7349 36.8232" stroke="#282830" stroke-width="2" stroke-linejoin="round"/>
<path d="M33.3516 32.2355L41.3078 23.8574" stroke="#282830" stroke-width="2" stroke-linejoin="round"/>
<path d="M40.3628 17.2803L47.3739 24.663" stroke="#282830" stroke-width="2" stroke-linejoin="round"/>
</svg>
