<svg width="80" height="80" viewBox="0 0 80 80" fill="none" xmlns="http://www.w3.org/2000/svg">
<path d="M25.6172 50.0679V42.9509C25.6172 39.0349 28.4512 37.5889 32.0972 37.5889L36.5802 42.5249L40.7392 37.5889C44.3872 37.5889 47.5382 39.0349 47.5382 42.9509V50.0679" stroke="#353F55" stroke-width="2" stroke-linejoin="round"/>
<path fill-rule="evenodd" clip-rule="evenodd" d="M41.9265 28.0142C41.9265 31.0002 39.5195 33.4442 36.5775 33.4442C33.6375 33.4442 31.2305 31.0012 31.2305 28.0142V26.0032C31.2305 23.0172 33.6365 20.5732 36.5775 20.5732C39.5185 20.5732 41.9265 23.0162 41.9265 26.0032V28.0142Z" stroke="#353F55" stroke-width="2"/>
<path fill-rule="evenodd" clip-rule="evenodd" d="M53.0655 20.1583C62.1725 29.2643 62.1725 44.0273 53.0655 53.1343C43.9605 62.2393 29.1975 62.2393 20.0905 53.1323C10.9865 44.0283 10.9845 29.2663 20.0905 20.1593C29.1975 11.0533 43.9625 11.0543 53.0655 20.1583Z" stroke="#353F55" stroke-width="2"/>
<path d="M55.2333 50.626L66.9292 62.32C68.0792 63.47 68.0014 65.432 66.7553 66.679C65.5073 67.926 63.5462 68.004 62.3962 66.854L54.0312 58.49" stroke="#353F55" stroke-width="2"/>
</svg>
