<svg width="30" height="30" viewBox="0 0 30 30" fill="none" xmlns="http://www.w3.org/2000/svg">
  <rect width="30" height="30" fill="#00628A" />
  <path fill-rule="evenodd" clip-rule="evenodd"
    d="M19.9281 22.6292L15.9404 24.1126L17.0953 19.9525L22.0333 14.3543C22.3058 14.0459 22.8776 14.1004 23.3039 14.4746L24.6756 15.6853C25.1016 16.0613 25.2275 16.6221 24.9543 16.9305L19.9281 22.6292Z"
    stroke="white" stroke-linejoin="round" />
  <path d="M20.1077 22.3276L17.2666 19.8203" stroke="white" stroke-linejoin="round" />
  <path d="M17.1537 23.5972L16.3682 22.8867" stroke="white" stroke-width="2" stroke-linejoin="round" />
  <path d="M18.7422 21.1007L21.5373 17.9316" stroke="white" stroke-linejoin="round" />
  <path d="M21.0361 15.6133L23.8282 18.0761" stroke="white" stroke-linejoin="round" />
  <path
    d="M10.4739 9.49276C10.6057 9.49276 10.7125 9.38595 10.7125 9.25419C10.7125 9.12244 10.6057 9.01562 10.4739 9.01562C10.3422 9.01562 10.2354 9.12244 10.2354 9.25419C10.2354 9.38595 10.3422 9.49276 10.4739 9.49276Z"
    fill="white" stroke="white" />
  <path
    d="M10.4739 14.5455C10.6057 14.5455 10.7125 14.4387 10.7125 14.3069C10.7125 14.1752 10.6057 14.0684 10.4739 14.0684C10.3422 14.0684 10.2354 14.1752 10.2354 14.3069C10.2354 14.4387 10.3422 14.5455 10.4739 14.5455Z"
    fill="white" stroke="white" />
  <path
    d="M10.7122 19.3844C10.7122 19.5164 10.6059 19.6226 10.4739 19.6226C10.3422 19.6226 10.2354 19.5161 10.2354 19.3844C10.2354 19.2518 10.3425 19.1455 10.4739 19.1455C10.6059 19.1455 10.7122 19.2518 10.7122 19.3844Z"
    fill="white" stroke="white" />
  <path
    d="M7.64258 10.4918V7.61211C7.64258 7.1068 8.05602 6.69336 8.56133 6.69336H20.1477C20.653 6.69336 21.0664 7.1068 21.0664 7.61211V13.2355"
    stroke="white" stroke-linejoin="round" />
  <path d="M7.64258 15.6031V11.7793L21.0266 11.7796" stroke="white" />
  <path d="M15.041 21.9554H8.56133C8.05602 21.9554 7.64258 21.542 7.64258 21.0367V16.8496H8.26427H17.9908"
    stroke="white" />
</svg>