<svg width="60" height="60" viewBox="0 0 60 60" fill="none" xmlns="http://www.w3.org/2000/svg">
<rect width="60" height="60" fill="#FFD166"/>
<path fill-rule="evenodd" clip-rule="evenodd" d="M36.9557 42.5004L30.6777 46.084L31.4697 38.7919L38.2087 28.0504C38.5817 27.4584 39.5542 27.3929 40.3727 27.9029L43.0047 29.5554C43.8222 30.0679 44.1872 30.9734 43.8142 31.5664L36.9557 42.5004Z" stroke="#353F55" stroke-width="2" stroke-linejoin="round"/>
<path d="M36.7245 41.6972L32.084 38.7842" stroke="#353F55" stroke-width="2" stroke-linejoin="round"/>
<path d="M32.5159 44.9569L31.0039 43.9824" stroke="#353F55" stroke-width="2" stroke-linejoin="round"/>
<path d="M34.5488 40.2641L38.3633 34.1826" stroke="#353F55" stroke-width="2" stroke-linejoin="round"/>
<path d="M36.8867 30.4341L42.2442 33.7951" stroke="#353F55" stroke-width="2" stroke-linejoin="round"/>
<path d="M28.3689 18.357C30.0095 18.357 31.3394 17.0271 31.3394 15.3865C31.3394 13.746 30.0095 12.416 28.3689 12.416C26.7284 12.416 25.3984 13.746 25.3984 15.3865C25.3984 17.0271 26.7284 18.357 28.3689 18.357Z" stroke="#353F55" stroke-width="2"/>
<path d="M33.9021 29.2562L33.2971 23.1641C33.1821 22.0172 32.1436 21.0781 30.9901 21.0781H25.7461C24.5926 21.0781 23.5551 22.0166 23.4396 23.1641L22.5481 32.0087C22.4331 33.1556 23.7361 34.0671 24.8281 34.4601L25.1096 46.0842" stroke="#353F55" stroke-width="2" stroke-linecap="round" stroke-linejoin="round"/>
</svg>
