<svg width="30" height="30" viewBox="0 0 34 34" fill="none" xmlns="http://www.w3.org/2000/svg">
  <rect width="34" height="34" fill="#003449" />
  <path d="M16.2448 15.8668L17.8828 11.3335" stroke="white" stroke-miterlimit="10" stroke-linejoin="round" />
  <path d="M12.8453 13.5199L14.3564 12.1943" stroke="white" stroke-miterlimit="10" stroke-linecap="round"
    stroke-linejoin="round" />
  <path d="M12.8453 13.7052L14.3564 15.2163" stroke="white" stroke-miterlimit="10" stroke-linecap="round"
    stroke-linejoin="round" />
  <path d="M21.5393 13.8114L20.0322 15.1416" stroke="white" stroke-miterlimit="10" stroke-linecap="round"
    stroke-linejoin="round" />
  <path d="M21.5382 13.6261L20.0225 12.1196" stroke="white" stroke-miterlimit="10" stroke-linecap="round"
    stroke-linejoin="round" />
  <path
    d="M23.7385 27.7451C23.5586 26.6951 23.2987 24.9881 23.4007 23.3248C23.4007 23.3248 24.0063 20.5977 25.2187 18.8555C25.2187 18.8555 29.0825 12.2646 23.3243 8.02175C23.3243 8.02175 18.2295 4.24432 12.0667 7.74049C12.0667 7.74049 8.62953 9.22815 9.3563 13.9858C9.3563 13.9858 9.50348 15.317 9.08252 15.9382L6.80626 18.6148C6.80626 18.6148 6.50332 19.4098 7.41248 19.4856L8.79983 19.7718C8.79983 19.7718 9.37976 20.9032 9.43805 21.7739C9.49638 22.644 9.29298 23.7177 9.29298 23.7177C9.29298 23.7177 8.79983 25.024 9.57424 25.5968C9.72641 25.6349 10.295 26.2802 14.348 25.4087C14.348 25.4087 14.7397 25.594 14.9876 27.7124"
    stroke="white" stroke-miterlimit="10" stroke-linecap="round" stroke-linejoin="round" />
  <path d="M9.61133 21.8325L11.3525 21.8601" stroke="white" stroke-miterlimit="10" stroke-linecap="round"
    stroke-linejoin="round" />
</svg>