<svg width="707" height="56" viewBox="0 0 707 56" fill="none" xmlns="http://www.w3.org/2000/svg">
<path d="M172.718 7.06H169.666V17H171.108V13.388H172.718C174.916 13.388 176.092 11.834 176.092 10.168C176.092 8.348 174.916 7.06 172.718 7.06ZM172.48 12.184H171.108V8.278H172.48C173.684 8.278 174.608 8.768 174.608 10.168C174.608 11.456 173.684 12.184 172.48 12.184ZM182.794 9.944V13.85C182.794 15.096 181.954 15.95 180.736 15.95C179.63 15.95 179.07 15.264 179.07 13.892V9.944H177.74V14.34C177.74 16.202 178.678 17.14 180.246 17.14C181.408 17.14 182.318 16.636 182.794 15.768V17H184.124V9.944H182.794ZM189.559 9.79C188.817 9.79 188.187 10.154 187.781 11.148V9.944H186.465V17H187.781V13.43C187.781 12.016 188.313 11.092 189.447 11.092C189.713 11.092 189.979 11.162 190.175 11.246L190.441 9.958C190.203 9.86 189.881 9.79 189.559 9.79ZM195.621 9.804C194.599 9.804 193.605 10.28 193.045 11.19V9.944H191.715V19.94H193.045V15.74C193.577 16.678 194.585 17.14 195.551 17.14C197.595 17.14 198.995 15.586 198.995 13.472C198.995 11.344 197.595 9.804 195.621 9.804ZM195.355 15.908C194.011 15.908 192.975 14.872 192.975 13.472C192.975 12.03 194.039 11.036 195.369 11.036C196.755 11.036 197.637 12.072 197.637 13.472C197.637 14.914 196.699 15.908 195.355 15.908ZM204.013 17.14C206.239 17.14 207.779 15.614 207.779 13.472C207.779 11.344 206.239 9.804 204.013 9.804C201.801 9.804 200.261 11.344 200.261 13.472C200.261 15.614 201.801 17.14 204.013 17.14ZM204.013 15.894C202.613 15.894 201.633 14.928 201.633 13.472C201.633 12.03 202.599 11.05 204.027 11.05C205.427 11.05 206.407 12.03 206.407 13.472C206.407 14.9 205.441 15.894 204.013 15.894ZM211.685 17.14C213.407 17.14 214.401 16.244 214.401 14.928C214.401 13.654 213.449 13.178 212.147 12.828C211.321 12.604 210.663 12.394 210.663 11.75C210.663 11.176 211.181 10.854 211.923 10.854C212.693 10.854 213.421 11.162 213.897 11.484L214.163 10.392C213.631 10.07 212.833 9.804 211.951 9.804C210.397 9.804 209.347 10.588 209.347 11.918C209.347 13.22 210.369 13.626 211.461 13.962C212.511 14.284 213.099 14.48 213.099 15.124C213.099 15.74 212.581 16.09 211.755 16.09C210.887 16.09 210.019 15.74 209.473 15.292L209.151 16.398C209.697 16.846 210.719 17.14 211.685 17.14ZM222.652 13.5C222.652 11.316 221.294 9.804 219.306 9.804C217.304 9.804 215.792 11.344 215.792 13.486C215.792 15.544 217.22 17.14 219.488 17.14C220.734 17.14 221.756 16.72 222.386 16.202L222.036 15.11C221.476 15.586 220.608 15.978 219.6 15.978C218.158 15.978 217.22 15.124 217.136 13.682H222.652V13.5ZM217.192 12.73C217.416 11.638 218.27 10.896 219.306 10.896C220.37 10.896 221.14 11.652 221.28 12.73H217.192ZM231.001 7.06H227.949V17H229.391V13.388H231.001C233.199 13.388 234.375 11.834 234.375 10.168C234.375 8.348 233.199 7.06 231.001 7.06ZM230.763 12.184H229.391V8.278H230.763C231.967 8.278 232.891 8.768 232.891 10.168C232.891 11.456 231.967 12.184 230.763 12.184ZM236.794 8.572C237.298 8.572 237.676 8.18 237.676 7.676C237.676 7.172 237.298 6.78 236.794 6.78C236.29 6.78 235.898 7.172 235.898 7.676C235.898 8.18 236.29 8.572 236.794 8.572ZM236.108 17H237.438V9.944H236.108V17ZM242.04 17.14C242.782 17.14 243.426 16.902 243.804 16.622L243.58 15.516C243.286 15.698 242.838 15.922 242.334 15.922C241.746 15.922 241.41 15.572 241.41 14.872V11.078H243.398V9.944H241.41V7.732L240.08 7.914V9.944H239.058V11.078H240.08V15.04C240.08 16.454 240.85 17.14 242.04 17.14ZM248.004 17.14C249.054 17.14 249.95 16.804 250.566 16.356L250.244 15.222C249.628 15.642 248.858 15.922 248.116 15.922C246.758 15.922 245.834 14.928 245.834 13.472C245.834 12.016 246.772 11.036 248.158 11.036C248.914 11.036 249.572 11.316 250.062 11.68L250.482 10.518C249.894 10.126 249.096 9.804 248.088 9.804C245.96 9.804 244.448 11.302 244.448 13.5C244.448 15.67 245.932 17.14 248.004 17.14ZM256.022 9.79C254.874 9.79 253.978 10.294 253.516 11.148V6.472H252.186V17H253.516V13.08C253.516 11.834 254.37 10.994 255.56 10.994C256.666 10.994 257.226 11.68 257.226 13.052V17H258.556V12.604C258.556 10.728 257.632 9.79 256.022 9.79Z" fill="#DF7112"/>
<path d="M302.43 7.06H299.378V17H300.82V13.388H302.43C304.628 13.388 305.804 11.834 305.804 10.168C305.804 8.348 304.628 7.06 302.43 7.06ZM302.192 12.184H300.82V8.278H302.192C303.396 8.278 304.32 8.768 304.32 10.168C304.32 11.456 303.396 12.184 302.192 12.184ZM313.509 13.5C313.509 11.316 312.151 9.804 310.163 9.804C308.161 9.804 306.649 11.344 306.649 13.486C306.649 15.544 308.077 17.14 310.345 17.14C311.591 17.14 312.613 16.72 313.243 16.202L312.893 15.11C312.333 15.586 311.465 15.978 310.457 15.978C309.015 15.978 308.077 15.124 307.993 13.682H313.509V13.5ZM308.049 12.73C308.273 11.638 309.127 10.896 310.163 10.896C311.227 10.896 311.997 11.652 312.137 12.73H308.049ZM318.328 9.79C317.586 9.79 316.956 10.154 316.55 11.148V9.944H315.234V17H316.55V13.43C316.55 12.016 317.082 11.092 318.216 11.092C318.482 11.092 318.748 11.162 318.944 11.246L319.21 9.958C318.972 9.86 318.65 9.79 318.328 9.79ZM322.598 17.14C324.32 17.14 325.314 16.244 325.314 14.928C325.314 13.654 324.362 13.178 323.06 12.828C322.234 12.604 321.576 12.394 321.576 11.75C321.576 11.176 322.094 10.854 322.836 10.854C323.606 10.854 324.334 11.162 324.81 11.484L325.076 10.392C324.544 10.07 323.746 9.804 322.864 9.804C321.31 9.804 320.26 10.588 320.26 11.918C320.26 13.22 321.282 13.626 322.374 13.962C323.424 14.284 324.012 14.48 324.012 15.124C324.012 15.74 323.494 16.09 322.668 16.09C321.8 16.09 320.932 15.74 320.386 15.292L320.064 16.398C320.61 16.846 321.632 17.14 322.598 17.14ZM330.457 17.14C332.683 17.14 334.223 15.614 334.223 13.472C334.223 11.344 332.683 9.804 330.457 9.804C328.245 9.804 326.705 11.344 326.705 13.472C326.705 15.614 328.245 17.14 330.457 17.14ZM330.457 15.894C329.057 15.894 328.077 14.928 328.077 13.472C328.077 12.03 329.043 11.05 330.471 11.05C331.871 11.05 332.851 12.03 332.851 13.472C332.851 14.9 331.885 15.894 330.457 15.894ZM339.865 9.804C338.731 9.804 337.821 10.308 337.345 11.176V9.944H336.015V17H337.345V13.108C337.345 11.848 338.171 11.008 339.389 11.008C340.495 11.008 341.055 11.694 341.055 13.066V17H342.385V12.618C342.385 10.756 341.475 9.804 339.865 9.804ZM347.553 9.804C346.349 9.804 345.355 10.21 344.739 10.63L345.075 11.736C345.537 11.4 346.321 10.938 347.329 10.938C348.533 10.938 349.135 11.596 349.135 12.618V12.772C345.677 12.8 344.263 13.43 344.263 15.054C344.263 16.342 345.159 17.14 346.615 17.14C347.805 17.14 348.687 16.622 349.135 15.908V17H350.465V12.59C350.465 10.686 349.345 9.804 347.553 9.804ZM347.021 16.118C346.125 16.118 345.649 15.67 345.649 14.984C345.649 14.074 346.489 13.682 349.135 13.654V14.256C349.135 15.572 347.987 16.118 347.021 16.118ZM358.968 17.14C360.97 17.14 362.328 16.076 362.328 14.2C362.328 12.394 361.068 11.946 359.528 11.372C358.282 10.91 357.442 10.546 357.442 9.58C357.442 8.726 358.156 8.194 359.262 8.194C360.074 8.194 360.984 8.474 361.642 8.852L362.02 7.578C361.348 7.2 360.312 6.906 359.29 6.906C357.344 6.906 356.014 7.97 356.014 9.706C356.014 11.372 357.246 12.016 358.772 12.576C360.13 13.08 360.9 13.374 360.9 14.34C360.9 15.32 360.214 15.852 359.066 15.852C357.988 15.852 356.91 15.404 356.168 14.802L355.776 16.146C356.63 16.776 357.792 17.14 358.968 17.14ZM370.616 13.5C370.616 11.316 369.258 9.804 367.27 9.804C365.268 9.804 363.756 11.344 363.756 13.486C363.756 15.544 365.184 17.14 367.452 17.14C368.698 17.14 369.72 16.72 370.35 16.202L370 15.11C369.44 15.586 368.572 15.978 367.564 15.978C366.122 15.978 365.184 15.124 365.1 13.682H370.616V13.5ZM365.156 12.73C365.38 11.638 366.234 10.896 367.27 10.896C368.334 10.896 369.104 11.652 369.244 12.73H365.156ZM373.965 17.14C374.511 17.14 374.931 17 375.183 16.874L375.001 15.782C374.861 15.852 374.595 15.95 374.315 15.95C373.895 15.95 373.643 15.698 373.643 15.068V6.472H372.313V15.278C372.313 16.566 372.943 17.14 373.965 17.14ZM382.757 13.5C382.757 11.316 381.399 9.804 379.411 9.804C377.409 9.804 375.897 11.344 375.897 13.486C375.897 15.544 377.325 17.14 379.593 17.14C380.839 17.14 381.861 16.72 382.491 16.202L382.141 15.11C381.581 15.586 380.713 15.978 379.705 15.978C378.263 15.978 377.325 15.124 377.241 13.682H382.757V13.5ZM377.297 12.73C377.521 11.638 378.375 10.896 379.411 10.896C380.475 10.896 381.245 11.652 381.385 12.73H377.297ZM387.492 17.14C388.542 17.14 389.438 16.804 390.054 16.356L389.732 15.222C389.116 15.642 388.346 15.922 387.604 15.922C386.246 15.922 385.322 14.928 385.322 13.472C385.322 12.016 386.26 11.036 387.646 11.036C388.402 11.036 389.06 11.316 389.55 11.68L389.97 10.518C389.382 10.126 388.584 9.804 387.576 9.804C385.448 9.804 383.936 11.302 383.936 13.5C383.936 15.67 385.42 17.14 387.492 17.14ZM394.037 17.14C394.779 17.14 395.423 16.902 395.801 16.622L395.577 15.516C395.283 15.698 394.835 15.922 394.331 15.922C393.743 15.922 393.407 15.572 393.407 14.872V11.078H395.395V9.944H393.407V7.732L392.077 7.914V9.944H391.055V11.078H392.077V15.04C392.077 16.454 392.847 17.14 394.037 17.14ZM397.732 8.572C398.236 8.572 398.614 8.18 398.614 7.676C398.614 7.172 398.236 6.78 397.732 6.78C397.228 6.78 396.836 7.172 396.836 7.676C396.836 8.18 397.228 8.572 397.732 8.572ZM397.046 17H398.376V9.944H397.046V17ZM403.916 17.14C406.142 17.14 407.682 15.614 407.682 13.472C407.682 11.344 406.142 9.804 403.916 9.804C401.704 9.804 400.164 11.344 400.164 13.472C400.164 15.614 401.704 17.14 403.916 17.14ZM403.916 15.894C402.516 15.894 401.536 14.928 401.536 13.472C401.536 12.03 402.502 11.05 403.93 11.05C405.33 11.05 406.31 12.03 406.31 13.472C406.31 14.9 405.344 15.894 403.916 15.894ZM413.324 9.804C412.19 9.804 411.28 10.308 410.804 11.176V9.944H409.474V17H410.804V13.108C410.804 11.848 411.63 11.008 412.848 11.008C413.954 11.008 414.514 11.694 414.514 13.066V17H415.844V12.618C415.844 10.756 414.934 9.804 413.324 9.804Z" fill="#DF7112"/>
<path d="M455.618 7.06H452.566V17H454.008V13.388H455.618C457.816 13.388 458.992 11.834 458.992 10.168C458.992 8.348 457.816 7.06 455.618 7.06ZM455.38 12.184H454.008V8.278H455.38C456.584 8.278 457.508 8.768 457.508 10.168C457.508 11.456 456.584 12.184 455.38 12.184ZM463.641 9.79C462.899 9.79 462.269 10.154 461.863 11.148V9.944H460.547V17H461.863V13.43C461.863 12.016 462.395 11.092 463.529 11.092C463.795 11.092 464.061 11.162 464.257 11.246L464.523 9.958C464.285 9.86 463.963 9.79 463.641 9.79ZM468.784 17.14C471.01 17.14 472.55 15.614 472.55 13.472C472.55 11.344 471.01 9.804 468.784 9.804C466.572 9.804 465.032 11.344 465.032 13.472C465.032 15.614 466.572 17.14 468.784 17.14ZM468.784 15.894C467.384 15.894 466.404 14.928 466.404 13.472C466.404 12.03 467.37 11.05 468.798 11.05C470.198 11.05 471.178 12.03 471.178 13.472C471.178 14.9 470.212 15.894 468.784 15.894ZM475.014 8.572C475.518 8.572 475.896 8.18 475.896 7.676C475.896 7.172 475.518 6.78 475.014 6.78C474.51 6.78 474.118 7.172 474.118 7.676C474.118 8.18 474.51 8.572 475.014 8.572ZM473.81 20.052C475.014 20.052 475.672 19.366 475.672 17.686V9.944H474.342V17.546C474.342 18.554 474.09 18.834 473.502 18.834C473.32 18.834 473.152 18.806 472.97 18.736L472.774 19.898C473.026 19.982 473.404 20.052 473.81 20.052ZM484.334 13.5C484.334 11.316 482.976 9.804 480.988 9.804C478.986 9.804 477.474 11.344 477.474 13.486C477.474 15.544 478.902 17.14 481.17 17.14C482.416 17.14 483.438 16.72 484.068 16.202L483.718 15.11C483.158 15.586 482.29 15.978 481.282 15.978C479.84 15.978 478.902 15.124 478.818 13.682H484.334V13.5ZM478.874 12.73C479.098 11.638 479.952 10.896 480.988 10.896C482.052 10.896 482.822 11.652 482.962 12.73H478.874ZM489.069 17.14C490.119 17.14 491.015 16.804 491.631 16.356L491.309 15.222C490.693 15.642 489.923 15.922 489.181 15.922C487.823 15.922 486.899 14.928 486.899 13.472C486.899 12.016 487.837 11.036 489.223 11.036C489.979 11.036 490.637 11.316 491.127 11.68L491.547 10.518C490.959 10.126 490.161 9.804 489.153 9.804C487.025 9.804 485.513 11.302 485.513 13.5C485.513 15.67 486.997 17.14 489.069 17.14ZM495.614 17.14C496.356 17.14 497 16.902 497.378 16.622L497.154 15.516C496.86 15.698 496.412 15.922 495.908 15.922C495.32 15.922 494.984 15.572 494.984 14.872V11.078H496.972V9.944H494.984V7.732L493.654 7.914V9.944H492.632V11.078H493.654V15.04C493.654 16.454 494.424 17.14 495.614 17.14ZM505.947 9.804C504.925 9.804 503.931 10.28 503.371 11.19V9.944H502.041V19.94H503.371V15.74C503.903 16.678 504.911 17.14 505.877 17.14C507.921 17.14 509.321 15.586 509.321 13.472C509.321 11.344 507.921 9.804 505.947 9.804ZM505.681 15.908C504.337 15.908 503.301 14.872 503.301 13.472C503.301 12.03 504.365 11.036 505.695 11.036C507.081 11.036 507.963 12.072 507.963 13.472C507.963 14.914 507.025 15.908 505.681 15.908ZM514.227 9.79C513.485 9.79 512.855 10.154 512.449 11.148V9.944H511.133V17H512.449V13.43C512.449 12.016 512.981 11.092 514.115 11.092C514.381 11.092 514.647 11.162 514.843 11.246L515.109 9.958C514.871 9.86 514.549 9.79 514.227 9.79ZM522.478 13.5C522.478 11.316 521.12 9.804 519.132 9.804C517.13 9.804 515.618 11.344 515.618 13.486C515.618 15.544 517.046 17.14 519.314 17.14C520.56 17.14 521.582 16.72 522.212 16.202L521.862 15.11C521.302 15.586 520.434 15.978 519.426 15.978C517.984 15.978 517.046 15.124 516.962 13.682H522.478V13.5ZM517.018 12.73C517.242 11.638 518.096 10.896 519.132 10.896C520.196 10.896 520.966 11.652 521.106 12.73H517.018ZM528.546 9.944L526.488 15.46L524.444 9.944H522.974L525.788 17H527.146L529.946 9.944H528.546ZM531.848 8.572C532.352 8.572 532.73 8.18 532.73 7.676C532.73 7.172 532.352 6.78 531.848 6.78C531.344 6.78 530.952 7.172 530.952 7.676C530.952 8.18 531.344 8.572 531.848 8.572ZM531.162 17H532.492V9.944H531.162V17ZM541.14 13.5C541.14 11.316 539.782 9.804 537.794 9.804C535.792 9.804 534.28 11.344 534.28 13.486C534.28 15.544 535.708 17.14 537.976 17.14C539.222 17.14 540.244 16.72 540.874 16.202L540.524 15.11C539.964 15.586 539.096 15.978 538.088 15.978C536.646 15.978 535.708 15.124 535.624 13.682H541.14V13.5ZM535.68 12.73C535.904 11.638 536.758 10.896 537.794 10.896C538.858 10.896 539.628 11.652 539.768 12.73H535.68ZM551.184 9.944L549.532 15.348L547.796 9.944H546.648L544.926 15.404L543.246 9.944H541.776L544.142 17H545.514L547.208 11.736L548.916 17H550.288L552.584 9.944H551.184Z" fill="#ADADB0"/>
<rect x="139" y="43" width="436" height="2" rx="1" fill="#EFF0F0"/>
<rect x="139" y="43" width="221" height="2" rx="1" fill="#DF7112"/>
<path d="M225.5 44C225.5 50.3513 220.351 55.5 214 55.5C207.649 55.5 202.5 50.3513 202.5 44C202.5 37.6487 207.649 32.5 214 32.5C220.351 32.5 225.5 37.6487 225.5 44Z" fill="white" stroke="#DF7112"/>
<circle cx="214" cy="44" r="6" fill="#DF7112"/>
<path d="M225.5 44C225.5 50.3513 220.351 55.5 214 55.5C207.649 55.5 202.5 50.3513 202.5 44C202.5 37.6487 207.649 32.5 214 32.5C220.351 32.5 225.5 37.6487 225.5 44Z" fill="white" stroke="#DF7112"/>
<path fill-rule="evenodd" clip-rule="evenodd" d="M214 56C220.627 56 226 50.6274 226 44C226 37.3726 220.627 32 214 32C207.373 32 202 37.3726 202 44C202 50.6274 207.373 56 214 56Z" fill="#DF7112"/>
<path fill-rule="evenodd" clip-rule="evenodd" d="M219.682 40.7289C219.472 40.5162 219.192 40.4 218.894 40.4C218.603 40.4 218.327 40.5129 218.119 40.717L212.691 46.0558L209.877 43.3321C209.67 43.1313 209.397 43.0195 209.107 43.0195C208.807 43.0195 208.524 43.1378 208.313 43.3549C208.107 43.5666 207.996 43.8467 208 44.142C208.004 44.4383 208.125 44.7151 208.337 44.9203L211.926 48.3952C212.133 48.5971 212.406 48.7078 212.696 48.7078C212.987 48.7078 213.262 48.5971 213.472 48.3908L219.669 42.2954C219.881 42.0892 219.998 41.8123 220 41.5171C220.003 41.2207 219.89 40.9417 219.682 40.7289Z" fill="white"/>
<path d="M369.5 44C369.5 50.3513 364.351 55.5 358 55.5C351.649 55.5 346.5 50.3513 346.5 44C346.5 37.6487 351.649 32.5 358 32.5C364.351 32.5 369.5 37.6487 369.5 44Z" fill="white" stroke="#DF7112"/>
<circle cx="358" cy="44" r="6" fill="#DF7112"/>
<path d="M513.5 44C513.5 50.3513 508.351 55.5 502 55.5C495.649 55.5 490.5 50.3513 490.5 44C490.5 37.6487 495.649 32.5 502 32.5C508.351 32.5 513.5 37.6487 513.5 44Z" fill="white" stroke="#ADADB0"/>
</svg>
