<?xml version="1.0" standalone="no"?>
<!DOCTYPE svg PUBLIC "-//W3C//DTD SVG 20010904//EN"
 "http://www.w3.org/TR/2001/REC-SVG-20010904/DTD/svg10.dtd">
<svg version="1.0" xmlns="http://www.w3.org/2000/svg"
 width="512.000000pt" height="512.000000pt" viewBox="0 0 512.000000 512.000000"
 preserveAspectRatio="xMidYMid meet">

<g transform="translate(0.000000,512.000000) scale(0.100000,-0.100000)"
fill="#000000" stroke="none">
<path d="M2519 3457 c-300 -304 -618 -627 -707 -718 l-161 -166 706 -729 c388
-401 710 -729 715 -729 12 0 397 318 395 326 -1 4 -244 255 -539 559 -364 374
-538 560 -538 574 0 14 171 192 542 563 l541 541 -29 25 c-189 159 -369 307
-374 307 -3 -1 -251 -249 -551 -553z"/>
</g>
</svg>
