<svg width="16" height="16" viewBox="0 0 16 16" fill="none" xmlns="http://www.w3.org/2000/svg">
<path fill-rule="evenodd" clip-rule="evenodd" d="M1.33987 2.46923C1.12166 2.46923 0.941176 2.64749 0.941176 2.863V14.6767C0.941176 14.8922 1.12166 15.0704 1.33987 15.0704H14.6601C14.8783 15.0704 15.0588 14.8922 15.0588 14.6767V2.863C15.0588 2.64749 14.8783 2.46923 14.6601 2.46923H13.0578V1.53967H14.6601C15.3981 1.53967 16 2.13411 16 2.863V14.6767C16 15.4056 15.3981 16 14.6601 16H1.33987C0.601865 16 0 15.4056 0 14.6767V2.863C0 2.13411 0.601865 1.53967 1.33987 1.53967H3.73039V2.46923H1.33987Z" fill="#ADADB0"/>
<path fill-rule="evenodd" clip-rule="evenodd" d="M11.3368 2.46923H9.25342V1.53967H11.3368V2.46923Z" fill="#ADADB0"/>
<path fill-rule="evenodd" clip-rule="evenodd" d="M7.53503 2.46923H5.45166V1.53967H7.53503V2.46923Z" fill="#ADADB0"/>
<path fill-rule="evenodd" clip-rule="evenodd" d="M14.2574 6.41858H1.73975V5.48901H14.2574V6.41858Z" fill="#ADADB0"/>
<path fill-rule="evenodd" clip-rule="evenodd" d="M3.7909 0C4.0508 0 4.26149 0.208089 4.26149 0.46478V3.79596C4.26149 4.05265 4.0508 4.26074 3.7909 4.26074C3.531 4.26074 3.32031 4.05265 3.32031 3.79596V0.46478C3.32031 0.208089 3.531 0 3.7909 0Z" fill="#ADADB0"/>
<path fill-rule="evenodd" clip-rule="evenodd" d="M11.3973 0C11.6572 0 11.8679 0.208089 11.8679 0.46478V3.79596C11.8679 4.05265 11.6572 4.26074 11.3973 4.26074C11.1374 4.26074 10.9268 4.05265 10.9268 3.79596V0.46478C10.9268 0.208089 11.1374 0 11.3973 0Z" fill="#ADADB0"/>
<path fill-rule="evenodd" clip-rule="evenodd" d="M7.59559 0C7.85549 0 8.06618 0.208089 8.06618 0.46478V3.79596C8.06618 4.05265 7.85549 4.26074 7.59559 4.26074C7.33569 4.26074 7.125 4.05265 7.125 3.79596V0.46478C7.125 0.208089 7.33569 0 7.59559 0Z" fill="#ADADB0"/>
<path d="M5.81072 10.6072H5.56152V10.8533H5.81072V10.6072Z" fill="#ADADB0"/>
<path fill-rule="evenodd" clip-rule="evenodd" d="M5.09082 10.1423H6.28119V11.318H5.09082V10.1423Z" fill="#ADADB0"/>
<path d="M3.49578 10.6072H3.24658V10.8533H3.49578V10.6072Z" fill="#ADADB0"/>
<path fill-rule="evenodd" clip-rule="evenodd" d="M2.77588 10.1423H3.96625V11.318H2.77588V10.1423Z" fill="#ADADB0"/>
<path d="M8.12322 10.6072H7.87402V10.8533H8.12322V10.6072Z" fill="#ADADB0"/>
<path fill-rule="evenodd" clip-rule="evenodd" d="M7.40332 10.1423H8.59369V11.318H7.40332V10.1423Z" fill="#ADADB0"/>
<path d="M10.4382 10.6072H10.189V10.8533H10.4382V10.6072Z" fill="#ADADB0"/>
<path fill-rule="evenodd" clip-rule="evenodd" d="M9.71875 10.1423H10.9091V11.318H9.71875V10.1423Z" fill="#ADADB0"/>
<path d="M12.7507 10.6072H12.5015V10.8533H12.7507V10.6072Z" fill="#ADADB0"/>
<path fill-rule="evenodd" clip-rule="evenodd" d="M12.0308 10.1423H13.2211V11.318H12.0308V10.1423Z" fill="#ADADB0"/>
<path d="M5.81072 8.32056H5.56152V8.56667H5.81072V8.32056Z" fill="#ADADB0"/>
<path fill-rule="evenodd" clip-rule="evenodd" d="M5.09082 7.85571H6.28119V9.03139H5.09082V7.85571Z" fill="#ADADB0"/>
<path d="M8.12322 8.32056H7.87402V8.56667H8.12322V8.32056Z" fill="#ADADB0"/>
<path fill-rule="evenodd" clip-rule="evenodd" d="M7.40332 7.85571H8.59369V9.03139H7.40332V7.85571Z" fill="#ADADB0"/>
<path d="M10.4382 8.32056H10.189V8.56667H10.4382V8.32056Z" fill="#ADADB0"/>
<path fill-rule="evenodd" clip-rule="evenodd" d="M9.71875 7.85571H10.9091V9.03139H9.71875V7.85571Z" fill="#ADADB0"/>
<path d="M12.7536 8.32056H12.5044V8.56667H12.7536V8.32056Z" fill="#ADADB0"/>
<path fill-rule="evenodd" clip-rule="evenodd" d="M12.0337 7.85571H13.2241V9.03139H12.0337V7.85571Z" fill="#ADADB0"/>
<path d="M5.81072 12.8909H5.56152V13.137H5.81072V12.8909Z" fill="#ADADB0"/>
<path fill-rule="evenodd" clip-rule="evenodd" d="M5.09082 12.4261H6.28119V13.6018H5.09082V12.4261Z" fill="#ADADB0"/>
<path d="M3.49578 12.8909H3.24658V13.137H3.49578V12.8909Z" fill="#ADADB0"/>
<path fill-rule="evenodd" clip-rule="evenodd" d="M2.77588 12.4261H3.96625V13.6018H2.77588V12.4261Z" fill="#ADADB0"/>
<path d="M8.12322 12.8909H7.87402V13.137H8.12322V12.8909Z" fill="#ADADB0"/>
<path fill-rule="evenodd" clip-rule="evenodd" d="M7.40332 12.4261H8.59369V13.6018H7.40332V12.4261Z" fill="#ADADB0"/>
<path d="M10.4382 12.8909H10.189V13.137H10.4382V12.8909Z" fill="#ADADB0"/>
<path fill-rule="evenodd" clip-rule="evenodd" d="M9.71875 12.4261H10.9091V13.6018H9.71875V12.4261Z" fill="#ADADB0"/>
</svg>
