<svg width="24" height="24" viewBox="0 0 24 24" fill="none" xmlns="http://www.w3.org/2000/svg">
<path fill-rule="evenodd" clip-rule="evenodd" d="M12 1.41176C6.15228 1.41176 1.41176 6.15228 1.41176 12C1.41176 17.8477 6.15228 22.5882 12 22.5882C17.8477 22.5882 22.5882 17.8477 22.5882 12C22.5882 6.15228 17.8477 1.41176 12 1.41176ZM0 12C0 5.37258 5.37258 0 12 0C18.6274 0 24 5.37258 24 12C24 18.6274 18.6274 24 12 24C5.37258 24 0 18.6274 0 12Z" fill="#282830"/>
<path fill-rule="evenodd" clip-rule="evenodd" d="M11.9998 4.28369C12.3897 4.28369 12.7057 4.59973 12.7057 4.98957V11.9997C12.7057 12.3896 12.3897 12.7056 11.9998 12.7056C11.61 12.7056 11.2939 12.3896 11.2939 11.9997V4.98957C11.2939 4.59973 11.61 4.28369 11.9998 4.28369Z" fill="#282830"/>
<path fill-rule="evenodd" clip-rule="evenodd" d="M11.548 11.4576C11.8474 11.208 12.2925 11.2485 12.5421 11.548L16.4366 16.2214C16.6862 16.5209 16.6458 16.966 16.3463 17.2155C16.0468 17.4651 15.6017 17.4247 15.3521 17.1252L11.4576 12.4517C11.208 12.1523 11.2485 11.7071 11.548 11.4576Z" fill="#282830"/>
</svg>
