<svg width="24" height="24" viewBox="0 0 24 24" fill="none" xmlns="http://www.w3.org/2000/svg">
<path fill-rule="evenodd" clip-rule="evenodd" d="M12 1.41176C6.15228 1.41176 1.41176 6.15228 1.41176 12C1.41176 17.8477 6.15228 22.5882 12 22.5882C17.8477 22.5882 22.5882 17.8477 22.5882 12C22.5882 6.15228 17.8477 1.41176 12 1.41176ZM0 12C0 5.37258 5.37258 0 12 0C18.6274 0 24 5.37258 24 12C24 18.6274 18.6274 24 12 24C5.37258 24 0 18.6274 0 12Z" fill="#282830"/>
<line x1="12.5" y1="1" x2="12.5" y2="11" stroke="black"/>
<line x1="23" y1="11.5" x2="12" y2="11.5" stroke="black"/>
</svg>
