<svg width="24" height="24" viewBox="0 0 24 24" fill="none" xmlns="http://www.w3.org/2000/svg">
<path d="M13.3635 14.3893C12.2017 13.4021 12.3381 12.9548 10.8763 12.9548C9.40899 12.9548 8.49263 13.2984 8.86354 15.3439C9.2399 17.3893 10.3308 16.4675 10.2272 18.0384C10.1235 19.6093 10.4999 19.9475 10.7399 20.3239C10.9799 20.7002 11.6944 21.7912 11.9672 20.253C12.2399 18.7148 12.7526 17.8639 13.3308 17.1166C13.909 16.3639 14.5254 15.3766 13.3635 14.3893ZM18.049 14.3021C17.6563 14.5421 17.6726 15.0712 17.9999 15.3602C18.3217 15.6493 18.9708 16.0257 19.1781 15.3602C19.3799 14.6948 18.4417 14.0621 18.049 14.3021ZM9.34354 10.8057C9.41445 10.0202 10.6744 9.20206 11.5254 8.8257C12.3763 8.44933 13.1617 8.31297 13.0581 7.66388C12.9544 7.0257 12.7144 6.5457 11.389 6.5457C10.0581 6.5457 10.6363 8.31842 9.54536 7.26024C8.45445 6.20206 9.78536 6.47479 10.3308 6.23479C10.8763 5.99479 11.4217 5.00751 10.4672 4.93661C9.51263 4.8657 9.71445 5.3457 8.96718 5.07297C8.2199 4.80024 7.87627 6.02751 7.40172 5.85842C7.08536 5.74388 6.2399 5.11115 5.68354 4.48933C4.55445 5.43842 3.649 6.64388 3.03809 8.00751C3.20172 9.84024 4.1999 10.8002 4.1999 10.8002C4.1999 10.8002 4.71263 11.9948 7.77809 13.4621C7.77809 13.4621 8.35627 13.4948 7.67445 12.813C6.99263 12.1312 6.2399 11.2802 7.09627 10.833C7.94718 10.3912 8.18718 10.4239 8.39445 11.2421C8.60172 12.0602 9.27263 11.5912 9.34354 10.8057ZM21.7744 11.0893C21.7635 10.9966 21.7526 10.9039 21.7417 10.8057C21.7145 10.5984 21.6872 10.3912 21.649 10.1893C21.6272 10.0857 21.6108 9.98206 21.589 9.87842C21.5454 9.67661 21.4908 9.48024 21.4363 9.28388C21.409 9.19661 21.3872 9.10388 21.3599 9.01661C21.2781 8.75479 21.1799 8.49297 21.0763 8.24206C21.0326 8.13297 20.9781 8.02933 20.929 7.9257C20.8581 7.77297 20.7926 7.6257 20.7163 7.47842C20.6508 7.34751 20.5799 7.22206 20.5035 7.09661C20.4381 6.98751 20.3726 6.87297 20.3017 6.76388C20.2145 6.62751 20.1272 6.49115 20.0345 6.36024C19.9854 6.28933 19.9308 6.21842 19.8763 6.14751C19.4944 5.63479 19.0635 5.16024 18.589 4.72933C18.5617 4.70206 18.529 4.67479 18.5017 4.64751C18.3326 4.5057 18.1581 4.36388 17.9781 4.22751C17.9672 4.22206 17.9617 4.21115 17.9508 4.2057C17.1763 3.61661 16.309 3.13661 15.3817 2.79297C15.1035 3.23479 14.8199 3.80206 14.4926 3.98751C14.0126 4.26024 14.0508 5.35115 14.9726 5.24751C14.9726 5.24751 14.6999 5.52024 14.9726 6.50751C15.2454 7.49479 15.7035 7.71297 17.0508 7.15661C17.629 6.9166 18.0708 7.04206 18.0054 7.6366C17.869 8.89661 16.8981 8.84206 17.629 10.8766C18.0708 12.1039 19.1617 12.5839 19.5708 13.5384C19.7945 14.0621 20.6617 14.5475 21.3926 14.8748C21.469 14.6184 21.5345 14.3566 21.5944 14.0893C21.6163 13.9912 21.6326 13.8875 21.6544 13.7839C21.6926 13.5875 21.7199 13.3857 21.7472 13.1839C21.7581 13.0912 21.769 12.993 21.7799 12.9002C21.8017 12.6002 21.8181 12.3002 21.8181 12.0002C21.8181 11.6948 21.8017 11.3893 21.7744 11.0893Z" fill="#282830"/>
<path fill-rule="evenodd" clip-rule="evenodd" d="M12 22.5C17.799 22.5 22.5 17.799 22.5 12C22.5 6.20101 17.799 1.5 12 1.5C6.20101 1.5 1.5 6.20101 1.5 12C1.5 17.799 6.20101 22.5 12 22.5ZM12 24C18.6274 24 24 18.6274 24 12C24 5.37258 18.6274 0 12 0C5.37258 0 0 5.37258 0 12C0 18.6274 5.37258 24 12 24Z" fill="#282830"/>
</svg>
