<svg width="40" height="40" viewBox="0 0 40 40" fill="none" xmlns="http://www.w3.org/2000/svg">
<rect width="40" height="40" fill="#63A7C2"/>
<path d="M19.111 18.6673L21.0381 13.334" stroke="white" stroke-miterlimit="10" stroke-linejoin="round"/>
<path d="M15.1109 15.9062L16.8887 14.3467" stroke="white" stroke-miterlimit="10" stroke-linecap="round" stroke-linejoin="round"/>
<path d="M15.1109 16.1246L16.8887 17.9023" stroke="white" stroke-miterlimit="10" stroke-linecap="round" stroke-linejoin="round"/>
<path d="M25.3385 16.2486L23.5654 17.8135" stroke="white" stroke-miterlimit="10" stroke-linecap="round" stroke-linejoin="round"/>
<path d="M25.3388 16.0312L23.5557 14.2588" stroke="white" stroke-miterlimit="10" stroke-linecap="round" stroke-linejoin="round"/>
<path d="M27.9265 32.6412C27.7148 31.406 27.4091 29.3977 27.5291 27.4409C27.5291 27.4409 28.2415 24.2326 29.6679 22.1829C29.6679 22.1829 34.2136 14.4288 27.4392 9.4373C27.4392 9.4373 21.4454 4.99326 14.195 9.10641C14.195 9.10641 10.1512 10.8566 11.0063 16.4539C11.0063 16.4539 11.1794 18.02 10.6842 18.7508L8.00622 21.8997C8.00622 21.8997 7.64982 22.835 8.71942 22.9241L10.3516 23.2608C10.3516 23.2608 11.0339 24.5919 11.1024 25.6163C11.1711 26.6399 10.9318 27.9032 10.9318 27.9032C10.9318 27.9032 10.3516 29.44 11.2627 30.1139C11.4417 30.1586 12.1106 30.9179 16.8788 29.8926C16.8788 29.8926 17.3397 30.1105 17.6313 32.6028" stroke="white" stroke-miterlimit="10" stroke-linecap="round" stroke-linejoin="round"/>
<path d="M11.3066 25.6855L13.355 25.719" stroke="white" stroke-miterlimit="10" stroke-linecap="round" stroke-linejoin="round"/>
</svg>
