<svg width="24" height="24" viewBox="0 0 24 24" fill="none" xmlns="http://www.w3.org/2000/svg">
<path d="M15.3282 12.8804H17.0601L20.1297 16.4423L20.1303 12.8804H20.9601C21.8958 12.8804 22.6611 12.1154 22.6611 11.18V5.2151C22.6611 4.2797 21.8958 3.5144 20.9601 3.5144H12.0252C11.0895 3.5144 10.3242 4.2797 10.3242 5.2151V6.536" stroke="#EFF0F0" stroke-linejoin="round"/>
<path fill-rule="evenodd" clip-rule="evenodd" d="M4.16957 20.7857L4.16897 17.2238H3.33857C2.40348 17.2238 1.63818 16.4585 1.63818 15.5228V9.55879C1.63818 8.62339 2.40348 7.85809 3.33857 7.85809H12.2738C13.2095 7.85809 13.9748 8.62339 13.9748 9.55879V15.5228C13.9748 16.4585 13.2095 17.2238 12.2738 17.2238H7.23887L4.16957 20.7857Z" stroke="#EFF0F0" stroke-linecap="round" stroke-linejoin="round"/>
</svg>
